<?xml version="1.0" encoding="utf-8"?>
<!-- Generator: Adobe Illustrator 24.0.2, SVG Export Plug-In . SVG Version: 6.00 Build 0)  -->
<svg version="1.1" id="レイヤー_1" xmlns="http://www.w3.org/2000/svg" xmlns:xlink="http://www.w3.org/1999/xlink" x="0px"
	 y="0px" viewBox="0 0 40 40" style="enable-background:new 0 0 40 40;" xml:space="preserve">
<style type="text/css">
	.st0{fill:#FFFFFF;}
</style>
<g>
	<path class="st0" d="M20,0C9,0,0,9,0,20s9,20,20,20s20-9,20-20S31,0,20,0z M30,16.2c0,0.2,0,0.4,0,0.6c0,6.4-4.8,13.7-13.7,13.7
		c-2.7,0-5.3-0.8-7.4-2.2c0.4,0,0.8,0.1,1.2,0.1c2.3,0,4.3-0.8,6-2.1c-2.1,0-3.9-1.4-4.5-3.3c0.3,0.1,0.6,0.1,0.9,0.1
		c0.4,0,0.9-0.1,1.3-0.2c-2.2-0.4-3.9-2.4-3.9-4.7c0,0,0,0,0-0.1c0.6,0.4,1.4,0.6,2.2,0.6c-1.3-0.9-2.1-2.3-2.1-4
		c0-0.9,0.2-1.7,0.7-2.4c2.4,2.9,5.9,4.8,9.9,5c-0.1-0.4-0.1-0.7-0.1-1.1c0-2.7,2.2-4.8,4.8-4.8c1.4,0,2.6,0.6,3.5,1.5
		c1.1-0.2,2.1-0.6,3.1-1.2c-0.4,1.1-1.1,2.1-2.1,2.7c1-0.1,1.9-0.4,2.8-0.8C31.8,14.7,31,15.5,30,16.2z"/>
</g>
</svg>
