<?xml version="1.0" encoding="utf-8"?>
<!-- Generator: Adobe Illustrator 24.0.2, SVG Export Plug-In . SVG Version: 6.00 Build 0)  -->
<svg version="1.1" id="レイヤー_1" xmlns="http://www.w3.org/2000/svg" xmlns:xlink="http://www.w3.org/1999/xlink" x="0px"
	 y="0px" viewBox="0 0 40 40" style="enable-background:new 0 0 40 40;" xml:space="preserve">
<style type="text/css">
	.st0{fill:#FFFFFF;}
</style>
<g>
	<path class="st0" d="M29.8,12.6c-0.2-0.6-0.5-1-0.9-1.4c-0.4-0.4-0.9-0.7-1.4-0.9c-0.4-0.2-1.1-0.4-2.3-0.4
		c-1.3-0.1-1.7-0.1-5.1-0.1c-3.3,0-3.7,0-5.1,0.1c-1.2,0.1-1.9,0.3-2.3,0.4c-0.6,0.2-1,0.5-1.4,0.9c-0.4,0.4-0.7,0.9-0.9,1.4
		c-0.2,0.4-0.4,1.1-0.4,2.3c-0.1,1.3-0.1,1.7-0.1,5.1s0,3.7,0.1,5.1c0.1,1.2,0.3,1.9,0.4,2.3c0.2,0.6,0.5,1,0.9,1.4
		c0.4,0.4,0.9,0.7,1.4,0.9c0.4,0.2,1.1,0.4,2.3,0.4c1.3,0.1,1.7,0.1,5.1,0.1c3.3,0,3.7,0,5.1-0.1c1.2-0.1,1.9-0.3,2.3-0.4
		c0.6-0.2,1-0.5,1.4-0.9c0.4-0.4,0.7-0.9,0.9-1.4c0.2-0.4,0.4-1.1,0.4-2.3c0.1-1.3,0.1-1.7,0.1-5.1s0-3.7-0.1-5.1
		C30.2,13.7,29.9,13,29.8,12.6z M20,26.4c-3.6,0-6.4-2.9-6.4-6.4s2.9-6.4,6.4-6.4c3.6,0,6.4,2.9,6.4,6.4S23.6,26.4,20,26.4z
		 M26.7,14.8c-0.8,0-1.5-0.7-1.5-1.5c0-0.8,0.7-1.5,1.5-1.5c0.8,0,1.5,0.7,1.5,1.5C28.2,14.1,27.5,14.8,26.7,14.8z"/>
	<path class="st0" d="M20,15.8c-2.3,0-4.2,1.9-4.2,4.2s1.9,4.2,4.2,4.2c2.3,0,4.2-1.9,4.2-4.2S22.3,15.8,20,15.8z"/>
	<path class="st0" d="M20,0C9,0,0,9,0,20s9,20,20,20c11,0,20-9,20-20S31,0,20,0z M32.5,25.2c-0.1,1.3-0.3,2.2-0.6,3
		c-0.3,0.8-0.7,1.5-1.4,2.2c-0.7,0.7-1.4,1.1-2.2,1.4c-0.8,0.3-1.7,0.5-3,0.6c-1.3,0.1-1.8,0.1-5.2,0.1c-3.4,0-3.8,0-5.2-0.1
		c-1.3-0.1-2.2-0.3-3-0.6c-0.8-0.3-1.5-0.7-2.2-1.4c-0.7-0.7-1.1-1.4-1.4-2.2c-0.3-0.8-0.5-1.7-0.6-3c-0.1-1.3-0.1-1.8-0.1-5.2
		s0-3.8,0.1-5.2c0.1-1.3,0.3-2.2,0.6-3c0.3-0.8,0.7-1.5,1.4-2.2c0.7-0.7,1.4-1.1,2.2-1.4c0.8-0.3,1.7-0.5,3-0.6
		c1.3-0.1,1.8-0.1,5.2-0.1c3.4,0,3.8,0,5.2,0.1c1.3,0.1,2.2,0.3,3,0.6c0.8,0.3,1.5,0.7,2.2,1.4c0.7,0.7,1.1,1.4,1.4,2.2
		c0.3,0.8,0.5,1.7,0.6,3c0.1,1.3,0.1,1.8,0.1,5.2S32.5,23.8,32.5,25.2z"/>
</g>
</svg>
