<?xml version="1.0" encoding="utf-8"?>
<!-- Generator: Adobe Illustrator 24.0.2, SVG Export Plug-In . SVG Version: 6.00 Build 0)  -->
<svg version="1.1" id="レイヤー_1" xmlns="http://www.w3.org/2000/svg" xmlns:xlink="http://www.w3.org/1999/xlink" x="0px"
	 y="0px" viewBox="0 0 30 30" style="enable-background:new 0 0 30 30;" xml:space="preserve">
<style type="text/css">
	.st0{fill:#FFFFFF;}
</style>
<g>
	<path class="st0" d="M15,5.1c3.2,0,3.6,0,4.9,0.1c1.2,0.1,1.8,0.3,2.2,0.4c0.6,0.2,1,0.5,1.4,0.9c0.4,0.4,0.7,0.8,0.9,1.4
		c0.2,0.4,0.4,1.1,0.4,2.2c0.1,1.3,0.1,1.7,0.1,4.9s0,3.6-0.1,4.9c-0.1,1.2-0.3,1.8-0.4,2.2c-0.2,0.6-0.5,1-0.9,1.4
		c-0.4,0.4-0.8,0.7-1.4,0.9c-0.4,0.2-1.1,0.4-2.2,0.4c-1.3,0.1-1.7,0.1-4.9,0.1s-3.6,0-4.9-0.1c-1.2-0.1-1.8-0.3-2.2-0.4
		c-0.6-0.2-1-0.5-1.4-0.9c-0.4-0.4-0.7-0.8-0.9-1.4c-0.2-0.4-0.4-1.1-0.4-2.2c-0.1-1.3-0.1-1.7-0.1-4.9s0-3.6,0.1-4.9
		c0.1-1.2,0.3-1.8,0.4-2.2c0.2-0.6,0.5-1,0.9-1.4C6.9,6,7.3,5.8,7.9,5.6c0.4-0.2,1.1-0.4,2.2-0.4C11.4,5.1,11.8,5.1,15,5.1 M15,2.9
		c-3.3,0-3.7,0-5,0.1C8.7,3,7.8,3.2,7.1,3.5C6.3,3.8,5.6,4.3,4.9,4.9C4.3,5.6,3.8,6.3,3.5,7.1C3.2,7.8,3,8.7,3,10
		c-0.1,1.3-0.1,1.7-0.1,5c0,3.3,0,3.7,0.1,5c0.1,1.3,0.3,2.2,0.6,2.9c0.3,0.8,0.7,1.5,1.4,2.1c0.7,0.7,1.3,1.1,2.1,1.4
		C7.8,26.8,8.7,27,10,27c1.3,0.1,1.7,0.1,5,0.1s3.7,0,5-0.1c1.3-0.1,2.2-0.3,2.9-0.6c0.8-0.3,1.5-0.7,2.1-1.4
		c0.7-0.7,1.1-1.3,1.4-2.1c0.3-0.8,0.5-1.7,0.6-2.9c0.1-1.3,0.1-1.7,0.1-5s0-3.7-0.1-5c-0.1-1.3-0.3-2.2-0.6-2.9
		c-0.3-0.8-0.7-1.5-1.4-2.1c-0.7-0.7-1.3-1.1-2.1-1.4C22.2,3.2,21.3,3,20,3C18.7,2.9,18.3,2.9,15,2.9L15,2.9z"/>
	<path class="st0" d="M15,8.8c-3.4,0-6.2,2.8-6.2,6.2s2.8,6.2,6.2,6.2s6.2-2.8,6.2-6.2S18.4,8.8,15,8.8z M15,19c-2.2,0-4-1.8-4-4
		s1.8-4,4-4c2.2,0,4,1.8,4,4S17.2,19,15,19z"/>
	<circle class="st0" cx="21.5" cy="8.5" r="1.5"/>
</g>
</svg>
