<?xml version="1.0" encoding="utf-8"?>
<!-- Generator: Adobe Illustrator 24.0.2, SVG Export Plug-In . SVG Version: 6.00 Build 0)  -->
<svg version="1.1" id="レイヤー_1" xmlns="http://www.w3.org/2000/svg" xmlns:xlink="http://www.w3.org/1999/xlink" x="0px"
	 y="0px" viewBox="0 0 30 30" style="enable-background:new 0 0 30 30;" xml:space="preserve">
<style type="text/css">
	.st0{fill:#FFFFFF;}
</style>
<path class="st0" d="M10.5,24.7c9,0,13.9-7.5,13.9-13.9c0-0.2,0-0.4,0-0.6c1-0.7,1.7-1.6,2.5-2.5C26,8,25.1,8.3,24.1,8.4
	c1-0.6,1.7-1.6,2.1-2.7c-1,0.6-2,1-3.1,1.2c-0.9-1-2.1-1.5-3.6-1.5c-2.7,0-4.9,2.2-4.9,4.9c0,0.4,0.1,0.8,0.2,1.1
	c-4.1-0.3-7.7-2.2-10.1-5.2C4.3,6.9,4.1,7.8,4.1,8.6c0,1.7,0.9,3.2,2.1,4.1c-0.8,0-1.6-0.2-2.2-0.6v0.1c0,2.4,1.7,4.4,3.9,4.8
	C7.5,17,7,17.1,6.6,17.1c-0.3,0-0.6,0-1-0.1c0.6,1.9,2.5,3.3,4.5,3.4c-1.7,1.4-3.8,2.1-6,2.1c-0.4,0-0.8,0-1.2-0.1
	C5.2,23.9,7.8,24.7,10.5,24.7"/>
</svg>
