<?xml version="1.0" encoding="utf-8"?>
<!-- Generator: Adobe Illustrator 24.0.2, SVG Export Plug-In . SVG Version: 6.00 Build 0)  -->
<svg version="1.1" id="レイヤー_1" xmlns="http://www.w3.org/2000/svg" xmlns:xlink="http://www.w3.org/1999/xlink" x="0px"
	 y="0px" viewBox="0 0 30 30" style="enable-background:new 0 0 30 30;" xml:space="preserve">
<style type="text/css">
	.st0{fill:#FFFFFF;}
</style>
<g>
	<path class="st0" d="M21,2.9l-3.1,0c-3.5,0-5.8,2.3-5.8,6v2.7H9c-0.3,0-0.5,0.2-0.5,0.5v4c0,0.3,0.2,0.5,0.5,0.5h3.2v10
		c0,0.3,0.2,0.5,0.5,0.5h4.1c0.3,0,0.5-0.2,0.5-0.5v-10h3.7c0.3,0,0.5-0.2,0.5-0.5l0-4c0-0.1-0.1-0.3-0.1-0.3s-0.2-0.1-0.3-0.1h-3.7
		V9.3c0-1.1,0.3-1.7,1.7-1.7l2.1,0c0.3,0,0.5-0.2,0.5-0.5V3.4C21.5,3.1,21.3,2.9,21,2.9z"/>
</g>
</svg>
