<?xml version="1.0" encoding="utf-8"?>
<!-- Generator: Adobe Illustrator 24.0.2, SVG Export Plug-In . SVG Version: 6.00 Build 0)  -->
<svg version="1.1" id="レイヤー_1" xmlns="http://www.w3.org/2000/svg" xmlns:xlink="http://www.w3.org/1999/xlink" x="0px"
	 y="0px" viewBox="0 0 60 60" style="enable-background:new 0 0 60 60;" xml:space="preserve">
<style type="text/css">
	.st0{fill-rule:evenodd;clip-rule:evenodd;fill:#FFFFFF;}
	
		.st1{fill-rule:evenodd;clip-rule:evenodd;fill:none;stroke:#FFFFFF;stroke-linecap:square;stroke-linejoin:round;stroke-miterlimit:10;}
</style>
<g>
	<path class="st0" d="M6.5,48.8c0,0.1,0,0.3-0.1,0.5c-0.1,0.2-0.1,0.4-0.3,0.7c-0.1,0.2-0.3,0.4-0.6,0.6s-0.6,0.2-1,0.3
		c-0.6,0-1.1-0.2-1.4-0.6c-0.3-0.4-0.5-0.8-0.7-1.4c-0.1-0.5-0.2-1.1-0.2-1.6c0-0.4,0-0.8,0.1-1.2c0-0.4,0.1-0.8,0.3-1.2
		c0.2-0.4,0.4-0.7,0.7-0.9c0.3-0.2,0.7-0.4,1.2-0.4c0.5,0,0.9,0.1,1.1,0.4c0.3,0.2,0.4,0.5,0.5,0.8c0.1,0.3,0.1,0.5,0.2,0.6h0.9
		C7.3,44.6,7,44,6.5,43.7C6,43.3,5.4,43,4.7,43c-0.7,0-1.3,0.2-1.8,0.5c-0.5,0.3-0.8,0.8-1.1,1.4c-0.2,0.6-0.4,1.3-0.4,2.1
		c0,1.3,0.3,2.4,0.9,3.1c0.6,0.7,1.4,1,2.3,1c0.1,0,0.3,0,0.5,0c0.3,0,0.5-0.1,0.9-0.3c0.3-0.1,0.6-0.4,0.9-0.7
		c0.3-0.3,0.4-0.8,0.6-1.4H6.5z"/>
	<path class="st0" d="M12.4,50.7c-0.6,0-1-0.2-1.3-0.5c-0.3-0.3-0.5-0.7-0.6-1.3c-0.1-0.5-0.2-1.2-0.2-1.9c0-0.7,0-1.3,0.1-1.8
		c0.1-0.5,0.3-1,0.6-1.3c0.3-0.3,0.7-0.5,1.3-0.5c0.6,0,1,0.2,1.3,0.4c0.3,0.3,0.5,0.7,0.6,1.3c0.1,0.5,0.2,1.2,0.2,2
		c0,0.7-0.1,1.3-0.2,1.9c-0.1,0.5-0.3,1-0.6,1.3C13.4,50.6,13,50.7,12.4,50.7z M15.4,47.1c0-0.3,0-0.6-0.1-1.1
		c-0.1-0.4-0.2-0.9-0.4-1.3c-0.2-0.5-0.5-0.8-0.9-1.1c-0.4-0.3-1-0.5-1.6-0.5c-0.7,0-1.3,0.2-1.7,0.5c-0.4,0.3-0.7,0.7-0.9,1.1
		c-0.2,0.5-0.3,0.9-0.4,1.3c-0.1,0.4-0.1,0.8-0.1,1c0,0.3,0,0.7,0.1,1.2c0.1,0.5,0.2,0.9,0.4,1.4c0.2,0.5,0.5,0.8,0.9,1.1
		c0.4,0.3,0.9,0.5,1.6,0.5c0.7,0,1.2-0.2,1.6-0.5c0.4-0.3,0.7-0.7,0.9-1.1c0.2-0.5,0.3-0.9,0.4-1.3C15.4,47.8,15.4,47.4,15.4,47.1z"
		/>
	<polygon class="st0" points="18.6,51 19.5,51 19.5,44.1 23.2,51 24.2,51 24.2,43.2 23.4,43.2 23.4,50.2 19.6,43.2 18.6,43.2 	"/>
	<polygon class="st0" points="31.9,43.6 31.9,43.2 26.4,43.2 26.4,43.6 28.7,43.6 28.7,51 29.6,51 29.6,43.6 	"/>
	<path class="st0" d="M36.1,48.5l1.7-4.7l1.7,4.7H36.1z M39.6,48.9l0.7,2.1h0.9l-2.8-7.8h-1.2L34.4,51h0.9l0.7-2.1H39.6z"/>
	<path class="st0" d="M48.5,48.8c0,0.1,0,0.3-0.1,0.5c-0.1,0.2-0.1,0.4-0.3,0.7c-0.1,0.2-0.3,0.4-0.6,0.6s-0.6,0.2-1,0.3
		c-0.6,0-1.1-0.2-1.4-0.6c-0.3-0.4-0.5-0.8-0.7-1.4c-0.1-0.5-0.2-1.1-0.2-1.6c0-0.4,0-0.8,0.1-1.2c0.1-0.4,0.2-0.8,0.3-1.2
		c0.2-0.4,0.4-0.7,0.7-0.9c0.3-0.2,0.7-0.4,1.2-0.4c0.5,0,0.9,0.1,1.1,0.4c0.3,0.2,0.4,0.5,0.5,0.8c0.1,0.3,0.2,0.5,0.2,0.6h0.9
		c-0.1-0.7-0.4-1.2-0.9-1.6C48,43.3,47.4,43,46.7,43c-0.7,0-1.3,0.2-1.8,0.5c-0.5,0.3-0.8,0.8-1.1,1.4c-0.2,0.6-0.4,1.3-0.4,2.1
		c0,1.3,0.3,2.4,0.9,3.1c0.6,0.7,1.3,1,2.3,1c0.1,0,0.3,0,0.5,0c0.3,0,0.5-0.1,0.8-0.3c0.3-0.1,0.6-0.4,0.9-0.7
		c0.3-0.3,0.4-0.8,0.5-1.4H48.5z"/>
	<polygon class="st0" points="57.9,43.6 57.9,43.2 52.4,43.2 52.4,43.6 54.7,43.6 54.7,51 55.6,51 55.6,43.6 	"/>
</g>
<path class="st1" d="M19.9,10h20.2c1.6,0,2.9,1.3,2.9,2.9v14.2c0,1.6-1.3,2.9-2.9,2.9H19.9c-1.6,0-2.9-1.3-2.9-2.9V12.9
	C17,11.3,18.3,10,19.9,10z"/>
<polyline class="st1" points="19,12 30,23 40,12 "/>
<line class="st1" x1="19" y1="28" x2="27" y2="20"/>
<line class="st1" x1="41" y1="28" x2="33" y2="20"/>
</svg>
