<?xml version="1.0" encoding="utf-8"?>
<!-- Generator: Adobe Illustrator 24.0.2, SVG Export Plug-In . SVG Version: 6.00 Build 0)  -->
<svg version="1.1" id="レイヤー_1" xmlns="http://www.w3.org/2000/svg" xmlns:xlink="http://www.w3.org/1999/xlink" x="0px"
	 y="0px" viewBox="0 0 60 60" style="enable-background:new 0 0 60 60;" xml:space="preserve">
<style type="text/css">
	.st0{fill-rule:evenodd;clip-rule:evenodd;fill:#FFFFFF;}
</style>
<circle class="st0" cx="30.5" cy="15.5" r="7.5"/>
<path class="st0" d="M17,34c-0.6-5.5,5.8-10,13-10s13,4.5,13,10C36.9,33.9,28.8,33.9,17,34z"/>
<g>
	<polygon class="st0" points="12.4,44.2 11.6,44.2 11.6,52 16.4,52 16.4,51.6 12.4,51.6 	"/>
	<path class="st0" d="M22.4,51.7c-0.6,0-1-0.2-1.3-0.5c-0.3-0.3-0.5-0.7-0.6-1.3c-0.1-0.5-0.2-1.2-0.2-1.9c0-0.7,0-1.3,0.1-1.8
		c0.1-0.5,0.3-1,0.6-1.3c0.3-0.3,0.7-0.5,1.3-0.5c0.6,0,1,0.2,1.3,0.4c0.3,0.3,0.5,0.7,0.6,1.3c0.1,0.5,0.2,1.2,0.2,2
		c0,0.7,0,1.3-0.2,1.9c-0.1,0.5-0.3,1-0.6,1.3C23.4,51.6,23,51.7,22.4,51.7z M25.4,48.1c0-0.3,0-0.6-0.1-1.1
		c-0.1-0.4-0.2-0.9-0.4-1.3c-0.2-0.5-0.5-0.8-0.9-1.1S23.1,44,22.4,44c-0.7,0-1.3,0.2-1.6,0.5c-0.4,0.3-0.7,0.7-0.9,1.1
		c-0.2,0.5-0.3,0.9-0.4,1.3c-0.1,0.4-0.1,0.8-0.1,1c0,0.3,0,0.7,0.1,1.2c0.1,0.5,0.2,0.9,0.4,1.4c0.2,0.5,0.5,0.8,0.9,1.1
		c0.4,0.3,0.9,0.5,1.6,0.5c0.7,0,1.2-0.2,1.6-0.5c0.4-0.3,0.7-0.7,0.9-1.1c0.2-0.5,0.3-0.9,0.4-1.3C25.4,48.8,25.4,48.4,25.4,48.1z"
		/>
	<path class="st0" d="M31.6,48v0.4h1.8v2.2c-0.2,0.4-0.4,0.6-0.6,0.8c-0.2,0.2-0.5,0.3-0.7,0.3c-0.2,0-0.4,0.1-0.5,0
		c-0.6,0-1.1-0.2-1.4-0.5c-0.3-0.3-0.5-0.8-0.7-1.3c-0.1-0.5-0.2-1.2-0.2-1.8c0-0.4,0-0.8,0.1-1.2c0-0.4,0.1-0.8,0.3-1.2
		c0.2-0.4,0.4-0.7,0.7-0.9c0.3-0.2,0.7-0.3,1.2-0.4c0.5,0,0.8,0.1,1.1,0.3c0.2,0.2,0.4,0.4,0.5,0.7c0.1,0.3,0.1,0.6,0.2,0.8h0.9
		c0-0.1-0.1-0.3-0.1-0.6c-0.1-0.3-0.2-0.5-0.4-0.8c-0.2-0.3-0.4-0.5-0.8-0.7c-0.3-0.2-0.8-0.3-1.4-0.3c-0.6,0-1.1,0.1-1.6,0.4
		c-0.4,0.2-0.7,0.6-1,1c-0.2,0.4-0.4,0.8-0.5,1.3c-0.1,0.5-0.1,0.9-0.1,1.4c0,0.4,0,0.8,0.1,1.2c0.1,0.5,0.2,0.9,0.4,1.3
		c0.2,0.4,0.5,0.8,0.9,1.1c0.4,0.3,1,0.4,1.7,0.4c0.6,0,1.1-0.1,1.6-0.4c0.5-0.3,0.8-0.6,1.1-1.1V48H31.6z"/>
	<rect x="37.9" y="44.2" class="st0" width="0.8" height="7.8"/>
	<polygon class="st0" points="42.6,52 43.5,52 43.5,45.1 47.2,52 48.2,52 48.2,44.2 47.4,44.2 47.4,51.2 43.6,44.2 42.6,44.2 	"/>
</g>
</svg>
