<?xml version="1.0" encoding="utf-8"?>
<!-- Generator: Adobe Illustrator 24.0.2, SVG Export Plug-In . SVG Version: 6.00 Build 0)  -->
<svg version="1.1" id="レイヤー_1" xmlns="http://www.w3.org/2000/svg" xmlns:xlink="http://www.w3.org/1999/xlink" x="0px"
	 y="0px" viewBox="0 0 60 60" style="enable-background:new 0 0 60 60;" xml:space="preserve">
<style type="text/css">
	
		.st0{fill-rule:evenodd;clip-rule:evenodd;fill:none;stroke:#FFFFFF;stroke-linecap:round;stroke-linejoin:round;stroke-miterlimit:10;}
	.st1{fill-rule:evenodd;clip-rule:evenodd;fill:#FFFFFF;}
</style>
<line class="st0" x1="14.5" y1="3.5" x2="47.5" y2="36.5"/>
<line class="st0" x1="47.5" y1="3.5" x2="14.5" y2="36.5"/>
<g>
	<path class="st1" d="M16.5,56.8c0,0.1,0,0.3-0.1,0.5c0,0.2-0.1,0.4-0.3,0.7c-0.1,0.2-0.3,0.4-0.6,0.6s-0.6,0.2-1,0.3
		c-0.6,0-1.1-0.2-1.4-0.6c-0.3-0.4-0.5-0.8-0.7-1.4c-0.1-0.5-0.2-1.1-0.2-1.6c0-0.4,0-0.8,0.1-1.2c0.1-0.4,0.2-0.8,0.3-1.2
		c0.1-0.4,0.4-0.7,0.7-0.9c0.3-0.2,0.7-0.4,1.2-0.4c0.5,0,0.9,0.1,1.1,0.4c0.3,0.2,0.4,0.5,0.5,0.8c0.1,0.3,0.1,0.5,0.2,0.6h0.9
		c-0.1-0.7-0.4-1.2-0.9-1.6C16,51.3,15.4,51,14.7,51c-0.7,0-1.3,0.2-1.8,0.5c-0.5,0.3-0.8,0.8-1.1,1.4c-0.2,0.6-0.4,1.3-0.4,2.1
		c0,1.3,0.3,2.4,0.9,3.1c0.6,0.7,1.4,1,2.3,1c0.1,0,0.3,0,0.5,0c0.3,0,0.5-0.1,0.9-0.3c0.3-0.1,0.6-0.4,0.9-0.7
		c0.3-0.3,0.4-0.8,0.5-1.4H16.5z"/>
	<polygon class="st1" points="21.4,51.2 20.6,51.2 20.6,59 25.4,59 25.4,58.6 21.4,58.6 	"/>
	<path class="st1" d="M30.4,58.7c-0.6,0-1-0.2-1.3-0.5c-0.3-0.3-0.5-0.7-0.6-1.3c-0.1-0.5-0.2-1.2-0.2-1.9c0-0.7,0-1.3,0.1-1.8
		c0.1-0.5,0.3-1,0.6-1.3c0.3-0.3,0.7-0.5,1.3-0.5c0.6,0,1,0.2,1.3,0.4c0.3,0.3,0.5,0.7,0.6,1.3c0.1,0.5,0.2,1.2,0.2,2
		c0,0.7,0,1.3-0.2,1.9c-0.1,0.5-0.3,1-0.6,1.3C31.4,58.6,31,58.7,30.4,58.7z M33.4,55.1c0-0.3,0-0.6-0.1-1.1
		c-0.1-0.4-0.2-0.9-0.4-1.3c-0.2-0.5-0.5-0.8-0.9-1.1c-0.4-0.3-1-0.5-1.6-0.5c-0.7,0-1.3,0.2-1.6,0.5c-0.4,0.3-0.7,0.7-0.9,1.1
		c-0.2,0.5-0.3,0.9-0.4,1.3c-0.1,0.4-0.1,0.8-0.1,1c0,0.3,0,0.7,0.1,1.2c0.1,0.5,0.2,0.9,0.4,1.4c0.2,0.5,0.5,0.8,0.9,1.1
		c0.4,0.3,0.9,0.5,1.6,0.5c0.7,0,1.2-0.2,1.6-0.5c0.4-0.3,0.7-0.7,0.9-1.1c0.2-0.5,0.3-0.9,0.4-1.3C33.4,55.8,33.4,55.4,33.4,55.1z"
		/>
	<path class="st1" d="M36.5,56.8c0.1,0.8,0.3,1.4,0.8,1.8c0.4,0.4,1.1,0.6,1.9,0.6c0.4,0,0.7,0,1.1-0.1c0.4-0.1,0.8-0.3,1.1-0.6
		c0.3-0.3,0.5-0.8,0.5-1.4c0-0.5-0.1-0.8-0.3-1.1c-0.2-0.3-0.5-0.5-0.9-0.7c-0.4-0.2-0.8-0.4-1.3-0.5c-0.5-0.2-0.9-0.3-1.2-0.5
		c-0.3-0.1-0.5-0.3-0.6-0.5c-0.1-0.2-0.2-0.4-0.2-0.7c0-0.5,0.1-0.8,0.3-1c0.2-0.2,0.4-0.4,0.7-0.4s0.5-0.1,0.6-0.1
		c0.5,0,0.9,0.1,1.2,0.3c0.2,0.2,0.4,0.5,0.5,0.7c0.1,0.3,0.1,0.5,0.1,0.7h0.9c-0.1-0.6-0.3-1.2-0.8-1.5c-0.4-0.4-1-0.6-1.8-0.6
		c-0.4,0-0.8,0.1-1.2,0.2c-0.4,0.1-0.7,0.4-0.9,0.7c-0.2,0.3-0.3,0.7-0.3,1.2c0,0.4,0.1,0.8,0.3,1c0.2,0.3,0.4,0.5,0.7,0.7
		c0.3,0.2,0.7,0.3,1.1,0.5c0.5,0.2,1,0.4,1.3,0.5c0.3,0.2,0.6,0.3,0.7,0.6c0.1,0.2,0.2,0.5,0.2,0.8c0,0.5-0.1,0.8-0.3,1
		c-0.2,0.2-0.5,0.4-0.7,0.4c-0.3,0.1-0.5,0.1-0.7,0.1c-0.6,0-1-0.1-1.4-0.4c-0.4-0.3-0.5-0.8-0.6-1.5H36.5z"/>
	<polygon class="st1" points="46.4,55.3 50,55.3 50,54.8 46.4,54.8 46.4,51.6 50.2,51.6 50.2,51.2 45.6,51.2 45.6,59 50.3,59 
		50.3,58.6 46.4,58.6 	"/>
</g>
</svg>
