<?xml version="1.0" encoding="utf-8"?>
<!-- Generator: Adobe Illustrator 24.0.2, SVG Export Plug-In . SVG Version: 6.00 Build 0)  -->
<svg version="1.1" id="レイヤー_1" xmlns="http://www.w3.org/2000/svg" xmlns:xlink="http://www.w3.org/1999/xlink" x="0px"
	 y="0px" viewBox="0 0 60 60" style="enable-background:new 0 0 60 60;" xml:space="preserve">
<style type="text/css">
	.st0{fill-rule:evenodd;clip-rule:evenodd;fill:#0C6BA4;}
	.st1{fill-rule:evenodd;clip-rule:evenodd;fill:#0C6BA3;}
</style>
<rect x="15" y="11" class="st0" width="31" height="1"/>
<rect x="15" y="19" class="st0" width="31" height="1"/>
<rect x="15" y="27" class="st0" width="31" height="1"/>
<g>
	<polygon class="st1" points="14.8,42.2 13.6,42.2 13.6,50 14.5,50 14.5,42.9 16.7,50 17.5,50 19.7,42.9 19.7,50 20.5,50 20.5,42.2 
		19.4,42.2 17.1,49.5 	"/>
	<polygon class="st1" points="24.4,46.3 28,46.3 28,45.8 24.4,45.8 24.4,42.6 28.2,42.6 28.2,42.2 23.6,42.2 23.6,50 28.3,50 
		28.3,49.6 24.4,49.6 	"/>
	<polygon class="st1" points="30.6,50 31.5,50 31.5,43.1 35.2,50 36.2,50 36.2,42.2 35.4,42.2 35.4,49.2 31.6,42.2 30.6,42.2 	"/>
	<path class="st1" d="M44.4,42.2v5.1c0,0.7-0.1,1.3-0.4,1.7c-0.3,0.5-0.8,0.7-1.5,0.7c-0.3,0-0.6,0-1-0.2s-0.6-0.3-0.8-0.7
		c-0.2-0.4-0.3-0.9-0.3-1.6v-5.1h-0.8v5.1c0,0.6,0.1,1.1,0.3,1.5c0.2,0.4,0.5,0.7,0.8,0.9c0.3,0.2,0.6,0.3,0.9,0.4
		c0.3,0.1,0.6,0.1,0.8,0.1c0.9,0,1.5-0.2,2.1-0.7c0.5-0.5,0.8-1.2,0.8-2.2v-5.1H44.4z"/>
</g>
</svg>
